<svg xmlns="http://www.w3.org/2000/svg" viewBox="0 0 512 512">
  <defs>
    <linearGradient id="sky" x1="0" x2="0" y1="0" y2="1">
      <stop offset="0" stop-color="#57c7ff"/>
      <stop offset="1" stop-color="#1677d2"/>
    </linearGradient>
    <linearGradient id="court" x1="0" x2="0" y1="0" y2="1">
      <stop offset="0" stop-color="#f7c260"/>
      <stop offset="1" stop-color="#d8792f"/>
    </linearGradient>
    <filter id="shadow" x="-20%" y="-20%" width="140%" height="140%">
      <feDropShadow dx="0" dy="12" stdDeviation="10" flood-color="#000" flood-opacity=".35"/>
    </filter>
  </defs>
  <rect width="512" height="512" rx="92" fill="url(#sky)"/>
  <circle cx="84" cy="84" r="42" fill="#fff" opacity=".8"/>
  <path d="M0 340h512v172H0z" fill="url(#court)"/>
  <path d="M0 365h512" stroke="#fff" stroke-width="8" opacity=".7"/>
  <path d="M256 340v172" stroke="#fff" stroke-width="6" opacity=".45"/>
  <circle cx="256" cy="438" r="62" fill="none" stroke="#fff" stroke-width="7" opacity=".45"/>
  <g filter="url(#shadow)">
    <rect x="346" y="132" width="22" height="205" rx="10" fill="#5b3426"/>
    <rect x="300" y="120" width="92" height="18" rx="9" fill="#e8edf8"/>
    <rect x="309" y="139" width="74" height="58" rx="6" fill="#ffffff" opacity=".92"/>
    <rect x="323" y="152" width="46" height="28" rx="4" fill="#ff5a5f"/>
    <path d="M319 196c20 22 58 22 78 0" fill="none" stroke="#f44" stroke-width="7" stroke-linecap="round"/>
    <path d="M326 197c10 42 56 42 66 0" fill="none" stroke="#fff" stroke-width="5" opacity=".9"/>
  </g>
  <g filter="url(#shadow)">
    <circle cx="182" cy="244" r="61" fill="#f97316"/>
    <path d="M121 244h122M182 183v122" stroke="#2b1507" stroke-width="8" opacity=".72"/>
    <path d="M138 204c33 25 56 56 72 98M226 204c-33 25-56 56-72 98" fill="none" stroke="#2b1507" stroke-width="8" opacity=".72"/>
  </g>
  <text x="256" y="414" text-anchor="middle" font-family="Arial Black, Arial, sans-serif" font-size="54" font-weight="900" fill="#fff" stroke="#171717" stroke-width="8" paint-order="stroke">BASKET</text>
  <text x="256" y="462" text-anchor="middle" font-family="Arial Black, Arial, sans-serif" font-size="52" font-weight="900" fill="#ffe26a" stroke="#171717" stroke-width="8" paint-order="stroke">RANDOM</text>
</svg>
